<svg xmlns="http://www.w3.org/2000/svg" viewBox="0 0 24 24" width="200" height="200" shape-rendering="crispEdges">
	<defs>
		<filter id="glow" x="-60%" y="-60%" width="220%" height="220%">
			<feGaussianBlur stdDeviation="1.1"/>
		</filter>
		<filter id="borderGlow" x="-60%" y="-60%" width="220%" height="220%">
			<feGaussianBlur stdDeviation="0.5"/>
		</filter>
	</defs>
	<rect x="1" y="1" width="22" height="22" rx="3" fill="none" stroke="#00f0ff" opacity="0.6" filter="url(#borderGlow)"/>
	<rect x="1" y="1" width="22" height="22" rx="3" fill="none" stroke="#7CFBFF"/>
	<g fill="#00f0ff" opacity="0.85" filter="url(#glow)">
		<rect x="6.500" y="3.357" width="0.786" height="0.786"/>
		<rect x="7.286" y="3.357" width="0.786" height="0.786"/>
		<rect x="5.714" y="4.143" width="0.786" height="0.786"/>
		<rect x="6.500" y="4.143" width="0.786" height="0.786"/>
		<rect x="7.286" y="4.143" width="0.786" height="0.786"/>
		<rect x="8.071" y="4.143" width="0.786" height="0.786"/>
		<rect x="8.857" y="4.143" width="0.786" height="0.786"/>
		<rect x="6.500" y="4.929" width="0.786" height="0.786"/>
		<rect x="7.286" y="4.929" width="0.786" height="0.786"/>
		<rect x="8.071" y="4.929" width="0.786" height="0.786"/>
		<rect x="8.857" y="4.929" width="0.786" height="0.786"/>
		<rect x="9.643" y="4.929" width="0.786" height="0.786"/>
		<rect x="4.143" y="5.714" width="0.786" height="0.786"/>
		<rect x="7.286" y="5.714" width="0.786" height="0.786"/>
		<rect x="8.071" y="5.714" width="0.786" height="0.786"/>
		<rect x="8.857" y="5.714" width="0.786" height="0.786"/>
		<rect x="9.643" y="5.714" width="0.786" height="0.786"/>
		<rect x="10.429" y="5.714" width="0.786" height="0.786"/>
		<rect x="3.357" y="6.500" width="0.786" height="0.786"/>
		<rect x="4.143" y="6.500" width="0.786" height="0.786"/>
		<rect x="4.929" y="6.500" width="0.786" height="0.786"/>
		<rect x="8.071" y="6.500" width="0.786" height="0.786"/>
		<rect x="8.857" y="6.500" width="0.786" height="0.786"/>
		<rect x="9.643" y="6.500" width="0.786" height="0.786"/>
		<rect x="10.429" y="6.500" width="0.786" height="0.786"/>
		<rect x="3.357" y="7.286" width="0.786" height="0.786"/>
		<rect x="4.143" y="7.286" width="0.786" height="0.786"/>
		<rect x="4.929" y="7.286" width="0.786" height="0.786"/>
		<rect x="5.714" y="7.286" width="0.786" height="0.786"/>
		<rect x="8.071" y="7.286" width="0.786" height="0.786"/>
		<rect x="8.857" y="7.286" width="0.786" height="0.786"/>
		<rect x="9.643" y="7.286" width="0.786" height="0.786"/>
		<rect x="10.429" y="7.286" width="0.786" height="0.786"/>
		<rect x="4.143" y="8.071" width="0.786" height="0.786"/>
		<rect x="4.929" y="8.071" width="0.786" height="0.786"/>
		<rect x="5.714" y="8.071" width="0.786" height="0.786"/>
		<rect x="6.500" y="8.071" width="0.786" height="0.786"/>
		<rect x="7.286" y="8.071" width="0.786" height="0.786"/>
		<rect x="8.071" y="8.071" width="0.786" height="0.786"/>
		<rect x="8.857" y="8.071" width="0.786" height="0.786"/>
		<rect x="9.643" y="8.071" width="0.786" height="0.786"/>
		<rect x="10.429" y="8.071" width="0.786" height="0.786"/>
		<rect x="4.143" y="8.857" width="0.786" height="0.786"/>
		<rect x="4.929" y="8.857" width="0.786" height="0.786"/>
		<rect x="5.714" y="8.857" width="0.786" height="0.786"/>
		<rect x="6.500" y="8.857" width="0.786" height="0.786"/>
		<rect x="7.286" y="8.857" width="0.786" height="0.786"/>
		<rect x="8.071" y="8.857" width="0.786" height="0.786"/>
		<rect x="8.857" y="8.857" width="0.786" height="0.786"/>
		<rect x="9.643" y="8.857" width="0.786" height="0.786"/>
		<rect x="10.429" y="8.857" width="0.786" height="0.786"/>
		<rect x="11.214" y="8.857" width="0.786" height="0.786"/>
		<rect x="4.929" y="9.643" width="0.786" height="0.786"/>
		<rect x="5.714" y="9.643" width="0.786" height="0.786"/>
		<rect x="6.500" y="9.643" width="0.786" height="0.786"/>
		<rect x="7.286" y="9.643" width="0.786" height="0.786"/>
		<rect x="8.071" y="9.643" width="0.786" height="0.786"/>
		<rect x="8.857" y="9.643" width="0.786" height="0.786"/>
		<rect x="9.643" y="9.643" width="0.786" height="0.786"/>
		<rect x="10.429" y="9.643" width="0.786" height="0.786"/>
		<rect x="11.214" y="9.643" width="0.786" height="0.786"/>
		<rect x="12.000" y="9.643" width="0.786" height="0.786"/>
		<rect x="5.714" y="10.429" width="0.786" height="0.786"/>
		<rect x="6.500" y="10.429" width="0.786" height="0.786"/>
		<rect x="7.286" y="10.429" width="0.786" height="0.786"/>
		<rect x="8.071" y="10.429" width="0.786" height="0.786"/>
		<rect x="8.857" y="10.429" width="0.786" height="0.786"/>
		<rect x="9.643" y="10.429" width="0.786" height="0.786"/>
		<rect x="10.429" y="10.429" width="0.786" height="0.786"/>
		<rect x="11.214" y="10.429" width="0.786" height="0.786"/>
		<rect x="12.000" y="10.429" width="0.786" height="0.786"/>
		<rect x="12.786" y="10.429" width="0.786" height="0.786"/>
		<rect x="8.857" y="11.214" width="0.786" height="0.786"/>
		<rect x="9.643" y="11.214" width="0.786" height="0.786"/>
		<rect x="10.429" y="11.214" width="0.786" height="0.786"/>
		<rect x="11.214" y="11.214" width="0.786" height="0.786"/>
		<rect x="12.000" y="11.214" width="0.786" height="0.786"/>
		<rect x="12.786" y="11.214" width="0.786" height="0.786"/>
		<rect x="13.571" y="11.214" width="0.786" height="0.786"/>
		<rect x="9.643" y="12.000" width="0.786" height="0.786"/>
		<rect x="10.429" y="12.000" width="0.786" height="0.786"/>
		<rect x="11.214" y="12.000" width="0.786" height="0.786"/>
		<rect x="12.000" y="12.000" width="0.786" height="0.786"/>
		<rect x="12.786" y="12.000" width="0.786" height="0.786"/>
		<rect x="13.571" y="12.000" width="0.786" height="0.786"/>
		<rect x="14.357" y="12.000" width="0.786" height="0.786"/>
		<rect x="10.429" y="12.786" width="0.786" height="0.786"/>
		<rect x="11.214" y="12.786" width="0.786" height="0.786"/>
		<rect x="12.000" y="12.786" width="0.786" height="0.786"/>
		<rect x="12.786" y="12.786" width="0.786" height="0.786"/>
		<rect x="13.571" y="12.786" width="0.786" height="0.786"/>
		<rect x="14.357" y="12.786" width="0.786" height="0.786"/>
		<rect x="15.143" y="12.786" width="0.786" height="0.786"/>
		<rect x="15.929" y="12.786" width="0.786" height="0.786"/>
		<rect x="16.714" y="12.786" width="0.786" height="0.786"/>
		<rect x="17.500" y="12.786" width="0.786" height="0.786"/>
		<rect x="11.214" y="13.571" width="0.786" height="0.786"/>
		<rect x="12.000" y="13.571" width="0.786" height="0.786"/>
		<rect x="12.786" y="13.571" width="0.786" height="0.786"/>
		<rect x="13.571" y="13.571" width="0.786" height="0.786"/>
		<rect x="14.357" y="13.571" width="0.786" height="0.786"/>
		<rect x="15.143" y="13.571" width="0.786" height="0.786"/>
		<rect x="15.929" y="13.571" width="0.786" height="0.786"/>
		<rect x="16.714" y="13.571" width="0.786" height="0.786"/>
		<rect x="17.500" y="13.571" width="0.786" height="0.786"/>
		<rect x="18.286" y="13.571" width="0.786" height="0.786"/>
		<rect x="12.000" y="14.357" width="0.786" height="0.786"/>
		<rect x="12.786" y="14.357" width="0.786" height="0.786"/>
		<rect x="13.571" y="14.357" width="0.786" height="0.786"/>
		<rect x="14.357" y="14.357" width="0.786" height="0.786"/>
		<rect x="15.143" y="14.357" width="0.786" height="0.786"/>
		<rect x="15.929" y="14.357" width="0.786" height="0.786"/>
		<rect x="16.714" y="14.357" width="0.786" height="0.786"/>
		<rect x="17.500" y="14.357" width="0.786" height="0.786"/>
		<rect x="18.286" y="14.357" width="0.786" height="0.786"/>
		<rect x="19.071" y="14.357" width="0.786" height="0.786"/>
		<rect x="12.786" y="15.143" width="0.786" height="0.786"/>
		<rect x="13.571" y="15.143" width="0.786" height="0.786"/>
		<rect x="14.357" y="15.143" width="0.786" height="0.786"/>
		<rect x="15.143" y="15.143" width="0.786" height="0.786"/>
		<rect x="15.929" y="15.143" width="0.786" height="0.786"/>
		<rect x="16.714" y="15.143" width="0.786" height="0.786"/>
		<rect x="17.500" y="15.143" width="0.786" height="0.786"/>
		<rect x="18.286" y="15.143" width="0.786" height="0.786"/>
		<rect x="19.071" y="15.143" width="0.786" height="0.786"/>
		<rect x="12.786" y="15.929" width="0.786" height="0.786"/>
		<rect x="13.571" y="15.929" width="0.786" height="0.786"/>
		<rect x="14.357" y="15.929" width="0.786" height="0.786"/>
		<rect x="15.143" y="15.929" width="0.786" height="0.786"/>
		<rect x="17.500" y="15.929" width="0.786" height="0.786"/>
		<rect x="18.286" y="15.929" width="0.786" height="0.786"/>
		<rect x="19.071" y="15.929" width="0.786" height="0.786"/>
		<rect x="19.857" y="15.929" width="0.786" height="0.786"/>
		<rect x="12.786" y="16.714" width="0.786" height="0.786"/>
		<rect x="13.571" y="16.714" width="0.786" height="0.786"/>
		<rect x="14.357" y="16.714" width="0.786" height="0.786"/>
		<rect x="15.143" y="16.714" width="0.786" height="0.786"/>
		<rect x="18.286" y="16.714" width="0.786" height="0.786"/>
		<rect x="19.071" y="16.714" width="0.786" height="0.786"/>
		<rect x="19.857" y="16.714" width="0.786" height="0.786"/>
		<rect x="12.786" y="17.500" width="0.786" height="0.786"/>
		<rect x="13.571" y="17.500" width="0.786" height="0.786"/>
		<rect x="14.357" y="17.500" width="0.786" height="0.786"/>
		<rect x="15.143" y="17.500" width="0.786" height="0.786"/>
		<rect x="15.929" y="17.500" width="0.786" height="0.786"/>
		<rect x="19.071" y="17.500" width="0.786" height="0.786"/>
		<rect x="13.571" y="18.286" width="0.786" height="0.786"/>
		<rect x="14.357" y="18.286" width="0.786" height="0.786"/>
		<rect x="15.143" y="18.286" width="0.786" height="0.786"/>
		<rect x="15.929" y="18.286" width="0.786" height="0.786"/>
		<rect x="16.714" y="18.286" width="0.786" height="0.786"/>
		<rect x="14.357" y="19.071" width="0.786" height="0.786"/>
		<rect x="15.143" y="19.071" width="0.786" height="0.786"/>
		<rect x="15.929" y="19.071" width="0.786" height="0.786"/>
		<rect x="16.714" y="19.071" width="0.786" height="0.786"/>
		<rect x="17.500" y="19.071" width="0.786" height="0.786"/>
		<rect x="15.929" y="19.857" width="0.786" height="0.786"/>
		<rect x="16.714" y="19.857" width="0.786" height="0.786"/>
	</g>
	<g fill="#7CFBFF">
		<rect x="6.500" y="3.357" width="0.786" height="0.786"/>
		<rect x="7.286" y="3.357" width="0.786" height="0.786"/>
		<rect x="5.714" y="4.143" width="0.786" height="0.786"/>
		<rect x="6.500" y="4.143" width="0.786" height="0.786"/>
		<rect x="7.286" y="4.143" width="0.786" height="0.786"/>
		<rect x="8.071" y="4.143" width="0.786" height="0.786"/>
		<rect x="8.857" y="4.143" width="0.786" height="0.786"/>
		<rect x="6.500" y="4.929" width="0.786" height="0.786"/>
		<rect x="7.286" y="4.929" width="0.786" height="0.786"/>
		<rect x="8.071" y="4.929" width="0.786" height="0.786"/>
		<rect x="8.857" y="4.929" width="0.786" height="0.786"/>
		<rect x="9.643" y="4.929" width="0.786" height="0.786"/>
		<rect x="4.143" y="5.714" width="0.786" height="0.786"/>
		<rect x="7.286" y="5.714" width="0.786" height="0.786"/>
		<rect x="8.071" y="5.714" width="0.786" height="0.786"/>
		<rect x="8.857" y="5.714" width="0.786" height="0.786"/>
		<rect x="9.643" y="5.714" width="0.786" height="0.786"/>
		<rect x="10.429" y="5.714" width="0.786" height="0.786"/>
		<rect x="3.357" y="6.500" width="0.786" height="0.786"/>
		<rect x="4.143" y="6.500" width="0.786" height="0.786"/>
		<rect x="4.929" y="6.500" width="0.786" height="0.786"/>
		<rect x="8.071" y="6.500" width="0.786" height="0.786"/>
		<rect x="8.857" y="6.500" width="0.786" height="0.786"/>
		<rect x="9.643" y="6.500" width="0.786" height="0.786"/>
		<rect x="10.429" y="6.500" width="0.786" height="0.786"/>
		<rect x="3.357" y="7.286" width="0.786" height="0.786"/>
		<rect x="4.143" y="7.286" width="0.786" height="0.786"/>
		<rect x="4.929" y="7.286" width="0.786" height="0.786"/>
		<rect x="5.714" y="7.286" width="0.786" height="0.786"/>
		<rect x="8.071" y="7.286" width="0.786" height="0.786"/>
		<rect x="8.857" y="7.286" width="0.786" height="0.786"/>
		<rect x="9.643" y="7.286" width="0.786" height="0.786"/>
		<rect x="10.429" y="7.286" width="0.786" height="0.786"/>
		<rect x="4.143" y="8.071" width="0.786" height="0.786"/>
		<rect x="4.929" y="8.071" width="0.786" height="0.786"/>
		<rect x="5.714" y="8.071" width="0.786" height="0.786"/>
		<rect x="6.500" y="8.071" width="0.786" height="0.786"/>
		<rect x="7.286" y="8.071" width="0.786" height="0.786"/>
		<rect x="8.071" y="8.071" width="0.786" height="0.786"/>
		<rect x="8.857" y="8.071" width="0.786" height="0.786"/>
		<rect x="9.643" y="8.071" width="0.786" height="0.786"/>
		<rect x="10.429" y="8.071" width="0.786" height="0.786"/>
		<rect x="4.143" y="8.857" width="0.786" height="0.786"/>
		<rect x="4.929" y="8.857" width="0.786" height="0.786"/>
		<rect x="5.714" y="8.857" width="0.786" height="0.786"/>
		<rect x="6.500" y="8.857" width="0.786" height="0.786"/>
		<rect x="7.286" y="8.857" width="0.786" height="0.786"/>
		<rect x="8.071" y="8.857" width="0.786" height="0.786"/>
		<rect x="8.857" y="8.857" width="0.786" height="0.786"/>
		<rect x="9.643" y="8.857" width="0.786" height="0.786"/>
		<rect x="10.429" y="8.857" width="0.786" height="0.786"/>
		<rect x="11.214" y="8.857" width="0.786" height="0.786"/>
		<rect x="4.929" y="9.643" width="0.786" height="0.786"/>
		<rect x="5.714" y="9.643" width="0.786" height="0.786"/>
		<rect x="6.500" y="9.643" width="0.786" height="0.786"/>
		<rect x="7.286" y="9.643" width="0.786" height="0.786"/>
		<rect x="8.071" y="9.643" width="0.786" height="0.786"/>
		<rect x="8.857" y="9.643" width="0.786" height="0.786"/>
		<rect x="9.643" y="9.643" width="0.786" height="0.786"/>
		<rect x="10.429" y="9.643" width="0.786" height="0.786"/>
		<rect x="11.214" y="9.643" width="0.786" height="0.786"/>
		<rect x="12.000" y="9.643" width="0.786" height="0.786"/>
		<rect x="5.714" y="10.429" width="0.786" height="0.786"/>
		<rect x="6.500" y="10.429" width="0.786" height="0.786"/>
		<rect x="7.286" y="10.429" width="0.786" height="0.786"/>
		<rect x="8.071" y="10.429" width="0.786" height="0.786"/>
		<rect x="8.857" y="10.429" width="0.786" height="0.786"/>
		<rect x="9.643" y="10.429" width="0.786" height="0.786"/>
		<rect x="10.429" y="10.429" width="0.786" height="0.786"/>
		<rect x="11.214" y="10.429" width="0.786" height="0.786"/>
		<rect x="12.000" y="10.429" width="0.786" height="0.786"/>
		<rect x="12.786" y="10.429" width="0.786" height="0.786"/>
		<rect x="8.857" y="11.214" width="0.786" height="0.786"/>
		<rect x="9.643" y="11.214" width="0.786" height="0.786"/>
		<rect x="10.429" y="11.214" width="0.786" height="0.786"/>
		<rect x="11.214" y="11.214" width="0.786" height="0.786"/>
		<rect x="12.000" y="11.214" width="0.786" height="0.786"/>
		<rect x="12.786" y="11.214" width="0.786" height="0.786"/>
		<rect x="13.571" y="11.214" width="0.786" height="0.786"/>
		<rect x="9.643" y="12.000" width="0.786" height="0.786"/>
		<rect x="10.429" y="12.000" width="0.786" height="0.786"/>
		<rect x="11.214" y="12.000" width="0.786" height="0.786"/>
		<rect x="12.000" y="12.000" width="0.786" height="0.786"/>
		<rect x="12.786" y="12.000" width="0.786" height="0.786"/>
		<rect x="13.571" y="12.000" width="0.786" height="0.786"/>
		<rect x="14.357" y="12.000" width="0.786" height="0.786"/>
		<rect x="10.429" y="12.786" width="0.786" height="0.786"/>
		<rect x="11.214" y="12.786" width="0.786" height="0.786"/>
		<rect x="12.000" y="12.786" width="0.786" height="0.786"/>
		<rect x="12.786" y="12.786" width="0.786" height="0.786"/>
		<rect x="13.571" y="12.786" width="0.786" height="0.786"/>
		<rect x="14.357" y="12.786" width="0.786" height="0.786"/>
		<rect x="15.143" y="12.786" width="0.786" height="0.786"/>
		<rect x="15.929" y="12.786" width="0.786" height="0.786"/>
		<rect x="16.714" y="12.786" width="0.786" height="0.786"/>
		<rect x="17.500" y="12.786" width="0.786" height="0.786"/>
		<rect x="11.214" y="13.571" width="0.786" height="0.786"/>
		<rect x="12.000" y="13.571" width="0.786" height="0.786"/>
		<rect x="12.786" y="13.571" width="0.786" height="0.786"/>
		<rect x="13.571" y="13.571" width="0.786" height="0.786"/>
		<rect x="14.357" y="13.571" width="0.786" height="0.786"/>
		<rect x="15.143" y="13.571" width="0.786" height="0.786"/>
		<rect x="15.929" y="13.571" width="0.786" height="0.786"/>
		<rect x="16.714" y="13.571" width="0.786" height="0.786"/>
		<rect x="17.500" y="13.571" width="0.786" height="0.786"/>
		<rect x="18.286" y="13.571" width="0.786" height="0.786"/>
		<rect x="12.000" y="14.357" width="0.786" height="0.786"/>
		<rect x="12.786" y="14.357" width="0.786" height="0.786"/>
		<rect x="13.571" y="14.357" width="0.786" height="0.786"/>
		<rect x="14.357" y="14.357" width="0.786" height="0.786"/>
		<rect x="15.143" y="14.357" width="0.786" height="0.786"/>
		<rect x="15.929" y="14.357" width="0.786" height="0.786"/>
		<rect x="16.714" y="14.357" width="0.786" height="0.786"/>
		<rect x="17.500" y="14.357" width="0.786" height="0.786"/>
		<rect x="18.286" y="14.357" width="0.786" height="0.786"/>
		<rect x="19.071" y="14.357" width="0.786" height="0.786"/>
		<rect x="12.786" y="15.143" width="0.786" height="0.786"/>
		<rect x="13.571" y="15.143" width="0.786" height="0.786"/>
		<rect x="14.357" y="15.143" width="0.786" height="0.786"/>
		<rect x="15.143" y="15.143" width="0.786" height="0.786"/>
		<rect x="15.929" y="15.143" width="0.786" height="0.786"/>
		<rect x="16.714" y="15.143" width="0.786" height="0.786"/>
		<rect x="17.500" y="15.143" width="0.786" height="0.786"/>
		<rect x="18.286" y="15.143" width="0.786" height="0.786"/>
		<rect x="19.071" y="15.143" width="0.786" height="0.786"/>
		<rect x="12.786" y="15.929" width="0.786" height="0.786"/>
		<rect x="13.571" y="15.929" width="0.786" height="0.786"/>
		<rect x="14.357" y="15.929" width="0.786" height="0.786"/>
		<rect x="15.143" y="15.929" width="0.786" height="0.786"/>
		<rect x="17.500" y="15.929" width="0.786" height="0.786"/>
		<rect x="18.286" y="15.929" width="0.786" height="0.786"/>
		<rect x="19.071" y="15.929" width="0.786" height="0.786"/>
		<rect x="19.857" y="15.929" width="0.786" height="0.786"/>
		<rect x="12.786" y="16.714" width="0.786" height="0.786"/>
		<rect x="13.571" y="16.714" width="0.786" height="0.786"/>
		<rect x="14.357" y="16.714" width="0.786" height="0.786"/>
		<rect x="15.143" y="16.714" width="0.786" height="0.786"/>
		<rect x="18.286" y="16.714" width="0.786" height="0.786"/>
		<rect x="19.071" y="16.714" width="0.786" height="0.786"/>
		<rect x="19.857" y="16.714" width="0.786" height="0.786"/>
		<rect x="12.786" y="17.500" width="0.786" height="0.786"/>
		<rect x="13.571" y="17.500" width="0.786" height="0.786"/>
		<rect x="14.357" y="17.500" width="0.786" height="0.786"/>
		<rect x="15.143" y="17.500" width="0.786" height="0.786"/>
		<rect x="15.929" y="17.500" width="0.786" height="0.786"/>
		<rect x="19.071" y="17.500" width="0.786" height="0.786"/>
		<rect x="13.571" y="18.286" width="0.786" height="0.786"/>
		<rect x="14.357" y="18.286" width="0.786" height="0.786"/>
		<rect x="15.143" y="18.286" width="0.786" height="0.786"/>
		<rect x="15.929" y="18.286" width="0.786" height="0.786"/>
		<rect x="16.714" y="18.286" width="0.786" height="0.786"/>
		<rect x="14.357" y="19.071" width="0.786" height="0.786"/>
		<rect x="15.143" y="19.071" width="0.786" height="0.786"/>
		<rect x="15.929" y="19.071" width="0.786" height="0.786"/>
		<rect x="16.714" y="19.071" width="0.786" height="0.786"/>
		<rect x="17.500" y="19.071" width="0.786" height="0.786"/>
		<rect x="15.929" y="19.857" width="0.786" height="0.786"/>
		<rect x="16.714" y="19.857" width="0.786" height="0.786"/>
	</g>
</svg>